<svg width="379" height="81" viewBox="0 0 379 81" fill="none" xmlns="http://www.w3.org/2000/svg">
<path d="M73.316 37.424C73.412 38.672 73.808 39.68 74.504 40.448C75.224 41.216 76.34 41.6 77.852 41.6C79.292 41.6 80.336 41.324 80.984 40.772C81.632 40.22 82.088 39.548 82.352 38.756C82.496 38.348 82.64 38.072 82.784 37.928C82.928 37.784 83.192 37.712 83.576 37.712H88.292C88.508 37.712 88.688 37.796 88.832 37.964C89 38.108 89.084 38.288 89.084 38.504C89.06 40.112 88.544 41.6 87.536 42.968C86.552 44.312 85.208 45.38 83.504 46.172C81.8 46.964 79.916 47.36 77.852 47.36C75.62 47.36 73.676 46.928 72.02 46.064C70.364 45.176 69.08 44 68.168 42.536C67.256 41.048 66.752 39.404 66.656 37.604C66.608 36.452 66.584 35.504 66.584 34.76C66.584 33.872 66.608 32.684 66.656 31.196C66.728 29.396 67.22 27.764 68.132 26.3C69.044 24.812 70.328 23.636 71.984 22.772C73.664 21.884 75.62 21.44 77.852 21.44C79.916 21.44 81.8 21.836 83.504 22.628C85.208 23.42 86.552 24.5 87.536 25.868C88.544 27.212 89.06 28.688 89.084 30.296C89.084 30.512 89 30.704 88.832 30.872C88.688 31.016 88.508 31.088 88.292 31.088H83.576C83.192 31.088 82.928 31.016 82.784 30.872C82.64 30.728 82.496 30.452 82.352 30.044C82.088 29.252 81.632 28.58 80.984 28.028C80.336 27.476 79.292 27.2 77.852 27.2C76.34 27.2 75.224 27.584 74.504 28.352C73.808 29.12 73.412 30.128 73.316 31.376C73.268 32.192 73.244 33.2 73.244 34.4C73.244 35.552 73.268 36.56 73.316 37.424ZM103.201 21.44C105.481 21.44 107.449 21.872 109.105 22.736C110.761 23.6 112.033 24.776 112.921 26.264C113.833 27.728 114.337 29.372 114.433 31.196C114.481 31.868 114.505 32.948 114.505 34.436C114.505 35.9 114.481 36.956 114.433 37.604C114.337 39.428 113.833 41.084 112.921 42.572C112.033 44.036 110.761 45.2 109.105 46.064C107.449 46.928 105.481 47.36 103.201 47.36C100.921 47.36 98.9533 46.928 97.2973 46.064C95.6413 45.2 94.3573 44.036 93.4453 42.572C92.5573 41.084 92.0653 39.428 91.9693 37.604C91.9213 36.308 91.8973 35.252 91.8973 34.436C91.8973 33.62 91.9213 32.54 91.9693 31.196C92.0653 29.372 92.5573 27.728 93.4453 26.264C94.3573 24.776 95.6413 23.6 97.2973 22.736C98.9533 21.872 100.921 21.44 103.201 21.44ZM107.773 31.376C107.653 30.104 107.209 29.096 106.441 28.352C105.697 27.584 104.617 27.2 103.201 27.2C101.785 27.2 100.693 27.584 99.9253 28.352C99.1813 29.096 98.7493 30.104 98.6293 31.376C98.5573 32.168 98.5213 33.164 98.5213 34.364C98.5213 35.54 98.5573 36.56 98.6293 37.424C98.7493 38.696 99.1813 39.716 99.9253 40.484C100.693 41.228 101.785 41.6 103.201 41.6C104.617 41.6 105.697 41.228 106.441 40.484C107.209 39.716 107.653 38.696 107.773 37.424C107.845 36.56 107.881 35.54 107.881 34.364C107.881 33.164 107.845 32.168 107.773 31.376ZM135.017 47C134.657 47 134.345 46.916 134.081 46.748C133.817 46.556 133.637 46.364 133.541 46.172L125.297 33.86V46.028C125.297 46.292 125.201 46.52 125.009 46.712C124.817 46.904 124.589 47 124.325 47H119.609C119.345 47 119.117 46.904 118.925 46.712C118.733 46.52 118.637 46.292 118.637 46.028V22.772C118.637 22.508 118.733 22.28 118.925 22.088C119.117 21.896 119.345 21.8 119.609 21.8H123.353C123.713 21.8 124.025 21.896 124.289 22.088C124.553 22.256 124.733 22.436 124.829 22.628L133.073 34.94V22.772C133.073 22.508 133.169 22.28 133.361 22.088C133.553 21.896 133.781 21.8 134.045 21.8H138.761C139.025 21.8 139.253 21.896 139.445 22.088C139.637 22.28 139.733 22.508 139.733 22.772V46.028C139.733 46.292 139.637 46.52 139.445 46.712C139.253 46.904 139.025 47 138.761 47H135.017ZM160.731 21.8C160.995 21.8 161.223 21.896 161.415 22.088C161.607 22.28 161.703 22.508 161.703 22.772V26.588C161.703 26.852 161.607 27.08 161.415 27.272C161.223 27.464 160.995 27.56 160.731 27.56H154.395V46.028C154.395 46.292 154.299 46.52 154.107 46.712C153.915 46.904 153.687 47 153.423 47H148.707C148.443 47 148.215 46.904 148.023 46.712C147.831 46.52 147.735 46.292 147.735 46.028V27.56H141.399C141.135 27.56 140.907 27.464 140.715 27.272C140.523 27.08 140.427 26.852 140.427 26.588V22.772C140.427 22.508 140.523 22.28 140.715 22.088C140.907 21.896 141.135 21.8 141.399 21.8H160.731ZM187.726 45.668C187.822 45.908 187.87 46.088 187.87 46.208C187.87 46.424 187.786 46.616 187.618 46.784C187.474 46.928 187.294 47 187.078 47H182.542C182.134 47 181.81 46.916 181.57 46.748C181.354 46.556 181.21 46.34 181.138 46.1L180.13 43.112H170.554L169.546 46.1C169.474 46.34 169.318 46.556 169.078 46.748C168.862 46.916 168.55 47 168.142 47H163.606C163.39 47 163.198 46.928 163.03 46.784C162.886 46.616 162.814 46.424 162.814 46.208C162.814 46.088 162.862 45.908 162.958 45.668L170.806 22.988C170.926 22.652 171.118 22.376 171.382 22.16C171.646 21.92 171.994 21.8 172.426 21.8H178.258C178.69 21.8 179.038 21.92 179.302 22.16C179.566 22.376 179.758 22.652 179.878 22.988L187.726 45.668ZM178.258 37.532L175.342 28.892L172.426 37.532H178.258ZM191.75 47C191.486 47 191.258 46.904 191.066 46.712C190.874 46.52 190.778 46.292 190.778 46.028V22.772C190.778 22.508 190.874 22.28 191.066 22.088C191.258 21.896 191.486 21.8 191.75 21.8H203.342C205.382 21.8 207.038 22.16 208.31 22.88C209.582 23.6 210.494 24.524 211.046 25.652C211.622 26.756 211.91 27.968 211.91 29.288C211.91 30.488 211.694 31.46 211.262 32.204C210.854 32.924 210.398 33.476 209.894 33.86C210.806 34.484 211.454 35.228 211.838 36.092C212.222 36.932 212.414 37.964 212.414 39.188C212.414 41.42 211.742 43.28 210.398 44.768C209.054 46.256 206.954 47 204.098 47H191.75ZM197.438 27.38V31.484H203.018C203.738 31.484 204.278 31.304 204.638 30.944C205.022 30.584 205.214 30.08 205.214 29.432C205.214 28.784 205.022 28.28 204.638 27.92C204.278 27.56 203.738 27.38 203.018 27.38H197.438ZM203.378 41.42C204.098 41.42 204.674 41.216 205.106 40.808C205.538 40.4 205.754 39.872 205.754 39.224C205.754 38.576 205.538 38.048 205.106 37.64C204.674 37.232 204.098 37.028 203.378 37.028H197.438V41.42H203.378ZM217.379 47C217.115 47 216.887 46.904 216.695 46.712C216.503 46.52 216.407 46.292 216.407 46.028V22.772C216.407 22.508 216.503 22.28 216.695 22.088C216.887 21.896 217.115 21.8 217.379 21.8H222.095C222.359 21.8 222.587 21.896 222.779 22.088C222.971 22.28 223.067 22.508 223.067 22.772V46.028C223.067 46.292 222.971 46.52 222.779 46.712C222.587 46.904 222.359 47 222.095 47H217.379ZM245.754 41.24C246.018 41.24 246.246 41.336 246.438 41.528C246.63 41.72 246.726 41.948 246.726 42.212V46.028C246.726 46.292 246.63 46.52 246.438 46.712C246.246 46.904 246.018 47 245.754 47H229.086C228.822 47 228.594 46.904 228.402 46.712C228.21 46.52 228.114 46.292 228.114 46.028V22.772C228.114 22.508 228.21 22.28 228.402 22.088C228.594 21.896 228.822 21.8 229.086 21.8H233.802C234.066 21.8 234.294 21.896 234.486 22.088C234.678 22.28 234.774 22.508 234.774 22.772V41.24H245.754ZM250.777 47C250.513 47 250.285 46.904 250.093 46.712C249.901 46.52 249.805 46.292 249.805 46.028V22.772C249.805 22.508 249.901 22.28 250.093 22.088C250.285 21.896 250.513 21.8 250.777 21.8H255.493C255.757 21.8 255.985 21.896 256.177 22.088C256.369 22.28 256.465 22.508 256.465 22.772V46.028C256.465 46.292 256.369 46.52 256.177 46.712C255.985 46.904 255.757 47 255.493 47H250.777ZM280.664 41.24C280.928 41.24 281.156 41.336 281.348 41.528C281.54 41.72 281.636 41.948 281.636 42.212V46.028C281.636 46.292 281.54 46.52 281.348 46.712C281.156 46.904 280.928 47 280.664 47H261.368C261.104 47 260.876 46.904 260.684 46.712C260.492 46.52 260.396 46.292 260.396 46.028V42.392C260.396 42.104 260.444 41.876 260.54 41.708C260.636 41.54 260.768 41.348 260.936 41.132L272.456 27.56H261.728C261.464 27.56 261.236 27.464 261.044 27.272C260.852 27.08 260.756 26.852 260.756 26.588V22.772C260.756 22.508 260.852 22.28 261.044 22.088C261.236 21.896 261.464 21.8 261.728 21.8H280.304C280.568 21.8 280.796 21.896 280.988 22.088C281.18 22.28 281.276 22.508 281.276 22.772V26.408C281.276 26.864 281.12 27.26 280.808 27.596L269.288 41.24H280.664ZM305.816 45.668C305.912 45.908 305.96 46.088 305.96 46.208C305.96 46.424 305.876 46.616 305.708 46.784C305.564 46.928 305.384 47 305.168 47H300.632C300.224 47 299.9 46.916 299.66 46.748C299.444 46.556 299.3 46.34 299.228 46.1L298.22 43.112H288.644L287.636 46.1C287.564 46.34 287.408 46.556 287.168 46.748C286.952 46.916 286.64 47 286.232 47H281.696C281.48 47 281.288 46.928 281.12 46.784C280.976 46.616 280.904 46.424 280.904 46.208C280.904 46.088 280.952 45.908 281.048 45.668L288.896 22.988C289.016 22.652 289.208 22.376 289.472 22.16C289.736 21.92 290.084 21.8 290.516 21.8H296.348C296.78 21.8 297.128 21.92 297.392 22.16C297.656 22.376 297.848 22.652 297.968 22.988L305.816 45.668ZM296.348 37.532L293.432 28.892L290.516 37.532H296.348ZM327.372 21.8C327.636 21.8 327.864 21.896 328.056 22.088C328.248 22.28 328.344 22.508 328.344 22.772V26.588C328.344 26.852 328.248 27.08 328.056 27.272C327.864 27.464 327.636 27.56 327.372 27.56H321.036V46.028C321.036 46.292 320.94 46.52 320.748 46.712C320.556 46.904 320.328 47 320.064 47H315.348C315.084 47 314.856 46.904 314.664 46.712C314.472 46.52 314.376 46.292 314.376 46.028V27.56H308.04C307.776 27.56 307.548 27.464 307.356 27.272C307.164 27.08 307.068 26.852 307.068 26.588V22.772C307.068 22.508 307.164 22.28 307.356 22.088C307.548 21.896 307.776 21.8 308.04 21.8H327.372ZM338.239 37.208H348.535C348.799 37.208 349.027 37.112 349.219 36.92C349.411 36.728 349.507 36.5 349.507 36.236V32.42C349.507 32.156 349.411 31.928 349.219 31.736C349.027 31.544 348.799 31.448 348.535 31.448H338.239V27.56H349.327C349.591 27.56 349.819 27.464 350.011 27.272C350.203 27.08 350.299 26.852 350.299 26.588V22.772C350.299 22.508 350.203 22.28 350.011 22.088C349.819 21.896 349.591 21.8 349.327 21.8H332.551C332.287 21.8 332.059 21.896 331.867 22.088C331.675 22.28 331.579 22.508 331.579 22.772V46.028C331.579 46.292 331.675 46.52 331.867 46.712C332.059 46.904 332.287 47 332.551 47H349.615C349.879 47 350.107 46.904 350.299 46.712C350.491 46.52 350.587 46.292 350.587 46.028V42.212C350.587 41.948 350.491 41.72 350.299 41.528C350.107 41.336 349.879 41.24 349.615 41.24H338.239V37.208Z" fill="white"/>
<path d="M21.7273 13L10 29.4412M21.7273 13H53M21.7273 13V41.4559M10 29.4412H42.5758M10 29.4412V56M42.5758 29.4412L53 13M42.5758 29.4412V56M53 13V41.4559M10 56H42.5758M10 56L21.7273 41.4559M42.5758 56L53 41.4559M53 41.4559H21.7273" stroke="white"/>
</svg>
