<svg width="450" height="67" viewBox="0 0 450 67" fill="none" xmlns="http://www.w3.org/2000/svg">
<g clip-path="url(#clip0)">
<path d="M73.316 37.424C73.412 38.672 73.808 39.68 74.504 40.448C75.224 41.216 76.34 41.6 77.852 41.6C79.292 41.6 80.336 41.324 80.984 40.772C81.632 40.22 82.088 39.548 82.352 38.756C82.496 38.348 82.64 38.072 82.784 37.928C82.928 37.784 83.192 37.712 83.576 37.712H88.292C88.508 37.712 88.688 37.796 88.832 37.964C89 38.108 89.084 38.288 89.084 38.504C89.06 40.112 88.544 41.6 87.536 42.968C86.552 44.312 85.208 45.38 83.504 46.172C81.8 46.964 79.916 47.36 77.852 47.36C75.62 47.36 73.676 46.928 72.02 46.064C70.364 45.176 69.08 44 68.168 42.536C67.256 41.048 66.752 39.404 66.656 37.604C66.608 36.452 66.584 35.504 66.584 34.76C66.584 33.872 66.608 32.684 66.656 31.196C66.728 29.396 67.22 27.764 68.132 26.3C69.044 24.812 70.328 23.636 71.984 22.772C73.664 21.884 75.62 21.44 77.852 21.44C79.916 21.44 81.8 21.836 83.504 22.628C85.208 23.42 86.552 24.5 87.536 25.868C88.544 27.212 89.06 28.688 89.084 30.296C89.084 30.512 89 30.704 88.832 30.872C88.688 31.016 88.508 31.088 88.292 31.088H83.576C83.192 31.088 82.928 31.016 82.784 30.872C82.64 30.728 82.496 30.452 82.352 30.044C82.088 29.252 81.632 28.58 80.984 28.028C80.336 27.476 79.292 27.2 77.852 27.2C76.34 27.2 75.224 27.584 74.504 28.352C73.808 29.12 73.412 30.128 73.316 31.376C73.268 32.192 73.244 33.2 73.244 34.4C73.244 35.552 73.268 36.56 73.316 37.424ZM103.201 21.44C105.481 21.44 107.449 21.872 109.105 22.736C110.761 23.6 112.033 24.776 112.921 26.264C113.833 27.728 114.337 29.372 114.433 31.196C114.481 31.868 114.505 32.948 114.505 34.436C114.505 35.9 114.481 36.956 114.433 37.604C114.337 39.428 113.833 41.084 112.921 42.572C112.033 44.036 110.761 45.2 109.105 46.064C107.449 46.928 105.481 47.36 103.201 47.36C100.921 47.36 98.9533 46.928 97.2973 46.064C95.6413 45.2 94.3573 44.036 93.4453 42.572C92.5573 41.084 92.0653 39.428 91.9693 37.604C91.9213 36.308 91.8973 35.252 91.8973 34.436C91.8973 33.62 91.9213 32.54 91.9693 31.196C92.0653 29.372 92.5573 27.728 93.4453 26.264C94.3573 24.776 95.6413 23.6 97.2973 22.736C98.9533 21.872 100.921 21.44 103.201 21.44ZM107.773 31.376C107.653 30.104 107.209 29.096 106.441 28.352C105.697 27.584 104.617 27.2 103.201 27.2C101.785 27.2 100.693 27.584 99.9253 28.352C99.1813 29.096 98.7493 30.104 98.6293 31.376C98.5573 32.168 98.5213 33.164 98.5213 34.364C98.5213 35.54 98.5573 36.56 98.6293 37.424C98.7493 38.696 99.1813 39.716 99.9253 40.484C100.693 41.228 101.785 41.6 103.201 41.6C104.617 41.6 105.697 41.228 106.441 40.484C107.209 39.716 107.653 38.696 107.773 37.424C107.845 36.56 107.881 35.54 107.881 34.364C107.881 33.164 107.845 32.168 107.773 31.376ZM135.017 47C134.657 47 134.345 46.916 134.081 46.748C133.817 46.556 133.637 46.364 133.541 46.172L125.297 33.86V46.028C125.297 46.292 125.201 46.52 125.009 46.712C124.817 46.904 124.589 47 124.325 47H119.609C119.345 47 119.117 46.904 118.925 46.712C118.733 46.52 118.637 46.292 118.637 46.028V22.772C118.637 22.508 118.733 22.28 118.925 22.088C119.117 21.896 119.345 21.8 119.609 21.8H123.353C123.713 21.8 124.025 21.896 124.289 22.088C124.553 22.256 124.733 22.436 124.829 22.628L133.073 34.94V22.772C133.073 22.508 133.169 22.28 133.361 22.088C133.553 21.896 133.781 21.8 134.045 21.8H138.761C139.025 21.8 139.253 21.896 139.445 22.088C139.637 22.28 139.733 22.508 139.733 22.772V46.028C139.733 46.292 139.637 46.52 139.445 46.712C139.253 46.904 139.025 47 138.761 47H135.017ZM160.731 21.8C160.995 21.8 161.223 21.896 161.415 22.088C161.607 22.28 161.703 22.508 161.703 22.772V26.588C161.703 26.852 161.607 27.08 161.415 27.272C161.223 27.464 160.995 27.56 160.731 27.56H154.395V46.028C154.395 46.292 154.299 46.52 154.107 46.712C153.915 46.904 153.687 47 153.423 47H148.707C148.443 47 148.215 46.904 148.023 46.712C147.831 46.52 147.735 46.292 147.735 46.028V27.56H141.399C141.135 27.56 140.907 27.464 140.715 27.272C140.523 27.08 140.427 26.852 140.427 26.588V22.772C140.427 22.508 140.523 22.28 140.715 22.088C140.907 21.896 141.135 21.8 141.399 21.8H160.731ZM187.726 45.668C187.822 45.908 187.87 46.088 187.87 46.208C187.87 46.424 187.786 46.616 187.618 46.784C187.474 46.928 187.294 47 187.078 47H182.542C182.134 47 181.81 46.916 181.57 46.748C181.354 46.556 181.21 46.34 181.138 46.1L180.13 43.112H170.554L169.546 46.1C169.474 46.34 169.318 46.556 169.078 46.748C168.862 46.916 168.55 47 168.142 47H163.606C163.39 47 163.198 46.928 163.03 46.784C162.886 46.616 162.814 46.424 162.814 46.208C162.814 46.088 162.862 45.908 162.958 45.668L170.806 22.988C170.926 22.652 171.118 22.376 171.382 22.16C171.646 21.92 171.994 21.8 172.426 21.8H178.258C178.69 21.8 179.038 21.92 179.302 22.16C179.566 22.376 179.758 22.652 179.878 22.988L187.726 45.668ZM178.258 37.532L175.342 28.892L172.426 37.532H178.258ZM191.75 47C191.486 47 191.258 46.904 191.066 46.712C190.874 46.52 190.778 46.292 190.778 46.028V22.772C190.778 22.508 190.874 22.28 191.066 22.088C191.258 21.896 191.486 21.8 191.75 21.8H203.342C205.382 21.8 207.038 22.16 208.31 22.88C209.582 23.6 210.494 24.524 211.046 25.652C211.622 26.756 211.91 27.968 211.91 29.288C211.91 30.488 211.694 31.46 211.262 32.204C210.854 32.924 210.398 33.476 209.894 33.86C210.806 34.484 211.454 35.228 211.838 36.092C212.222 36.932 212.414 37.964 212.414 39.188C212.414 41.42 211.742 43.28 210.398 44.768C209.054 46.256 206.954 47 204.098 47H191.75ZM197.438 27.38V31.484H203.018C203.738 31.484 204.278 31.304 204.638 30.944C205.022 30.584 205.214 30.08 205.214 29.432C205.214 28.784 205.022 28.28 204.638 27.92C204.278 27.56 203.738 27.38 203.018 27.38H197.438ZM203.378 41.42C204.098 41.42 204.674 41.216 205.106 40.808C205.538 40.4 205.754 39.872 205.754 39.224C205.754 38.576 205.538 38.048 205.106 37.64C204.674 37.232 204.098 37.028 203.378 37.028H197.438V41.42H203.378ZM217.379 47C217.115 47 216.887 46.904 216.695 46.712C216.503 46.52 216.407 46.292 216.407 46.028V22.772C216.407 22.508 216.503 22.28 216.695 22.088C216.887 21.896 217.115 21.8 217.379 21.8H222.095C222.359 21.8 222.587 21.896 222.779 22.088C222.971 22.28 223.067 22.508 223.067 22.772V46.028C223.067 46.292 222.971 46.52 222.779 46.712C222.587 46.904 222.359 47 222.095 47H217.379ZM245.754 41.24C246.018 41.24 246.246 41.336 246.438 41.528C246.63 41.72 246.726 41.948 246.726 42.212V46.028C246.726 46.292 246.63 46.52 246.438 46.712C246.246 46.904 246.018 47 245.754 47H229.086C228.822 47 228.594 46.904 228.402 46.712C228.21 46.52 228.114 46.292 228.114 46.028V22.772C228.114 22.508 228.21 22.28 228.402 22.088C228.594 21.896 228.822 21.8 229.086 21.8H233.802C234.066 21.8 234.294 21.896 234.486 22.088C234.678 22.28 234.774 22.508 234.774 22.772V41.24H245.754ZM250.777 47C250.513 47 250.285 46.904 250.093 46.712C249.901 46.52 249.805 46.292 249.805 46.028V22.772C249.805 22.508 249.901 22.28 250.093 22.088C250.285 21.896 250.513 21.8 250.777 21.8H255.493C255.757 21.8 255.985 21.896 256.177 22.088C256.369 22.28 256.465 22.508 256.465 22.772V46.028C256.465 46.292 256.369 46.52 256.177 46.712C255.985 46.904 255.757 47 255.493 47H250.777ZM280.664 41.24C280.928 41.24 281.156 41.336 281.348 41.528C281.54 41.72 281.636 41.948 281.636 42.212V46.028C281.636 46.292 281.54 46.52 281.348 46.712C281.156 46.904 280.928 47 280.664 47H261.368C261.104 47 260.876 46.904 260.684 46.712C260.492 46.52 260.396 46.292 260.396 46.028V42.392C260.396 42.104 260.444 41.876 260.54 41.708C260.636 41.54 260.768 41.348 260.936 41.132L272.456 27.56H261.728C261.464 27.56 261.236 27.464 261.044 27.272C260.852 27.08 260.756 26.852 260.756 26.588V22.772C260.756 22.508 260.852 22.28 261.044 22.088C261.236 21.896 261.464 21.8 261.728 21.8H280.304C280.568 21.8 280.796 21.896 280.988 22.088C281.18 22.28 281.276 22.508 281.276 22.772V26.408C281.276 26.864 281.12 27.26 280.808 27.596L269.288 41.24H280.664ZM308.347 45.668C308.443 45.908 308.491 46.088 308.491 46.208C308.491 46.424 308.407 46.616 308.239 46.784C308.095 46.928 307.915 47 307.699 47H303.163C302.755 47 302.431 46.916 302.191 46.748C301.975 46.556 301.831 46.34 301.759 46.1L300.751 43.112H291.175L290.167 46.1C290.095 46.34 289.939 46.556 289.699 46.748C289.483 46.916 289.171 47 288.763 47H284.227C284.011 47 283.819 46.928 283.651 46.784C283.507 46.616 283.435 46.424 283.435 46.208C283.435 46.088 283.483 45.908 283.579 45.668L291.427 22.988C291.547 22.652 291.739 22.376 292.003 22.16C292.267 21.92 292.615 21.8 293.047 21.8H298.879C299.311 21.8 299.659 21.92 299.923 22.16C300.187 22.376 300.379 22.652 300.499 22.988L308.347 45.668ZM298.879 37.532L295.963 28.892L293.047 37.532H298.879ZM327.779 47C327.419 47 327.107 46.916 326.843 46.748C326.579 46.556 326.399 46.364 326.303 46.172L318.059 33.86V46.028C318.059 46.292 317.963 46.52 317.771 46.712C317.579 46.904 317.351 47 317.087 47H312.371C312.107 47 311.879 46.904 311.687 46.712C311.495 46.52 311.399 46.292 311.399 46.028V22.772C311.399 22.508 311.495 22.28 311.687 22.088C311.879 21.896 312.107 21.8 312.371 21.8H316.115C316.475 21.8 316.787 21.896 317.051 22.088C317.315 22.256 317.495 22.436 317.591 22.628L325.835 34.94V22.772C325.835 22.508 325.931 22.28 326.123 22.088C326.315 21.896 326.543 21.8 326.807 21.8H331.523C331.787 21.8 332.015 21.896 332.207 22.088C332.399 22.28 332.495 22.508 332.495 22.772V46.028C332.495 46.292 332.399 46.52 332.207 46.712C332.015 46.904 331.787 47 331.523 47H327.779ZM359.408 31.844C359.456 33.188 359.48 34.052 359.48 34.436C359.48 34.82 359.456 35.66 359.408 36.956C359.336 38.924 358.82 40.664 357.86 42.176C356.924 43.688 355.628 44.876 353.972 45.74C352.316 46.58 350.396 47 348.212 47H338.492C338.228 47 338 46.904 337.808 46.712C337.616 46.52 337.52 46.292 337.52 46.028V22.772C337.52 22.508 337.616 22.28 337.808 22.088C338 21.896 338.228 21.8 338.492 21.8H348.032C350.216 21.8 352.148 22.232 353.828 23.096C355.532 23.936 356.864 25.124 357.824 26.66C358.808 28.172 359.336 29.9 359.408 31.844ZM344.18 27.56V41.24H348.032C351.056 41.24 352.628 39.86 352.748 37.1C352.796 35.708 352.82 34.796 352.82 34.364C352.82 33.884 352.796 32.996 352.748 31.7C352.676 30.332 352.22 29.3 351.38 28.604C350.564 27.908 349.388 27.56 347.852 27.56H344.18ZM373.518 21.44C375.798 21.44 377.766 21.872 379.422 22.736C381.078 23.6 382.35 24.776 383.238 26.264C384.15 27.728 384.654 29.372 384.75 31.196C384.798 31.868 384.822 32.948 384.822 34.436C384.822 35.9 384.798 36.956 384.75 37.604C384.654 39.428 384.15 41.084 383.238 42.572C382.35 44.036 381.078 45.2 379.422 46.064C377.766 46.928 375.798 47.36 373.518 47.36C371.238 47.36 369.27 46.928 367.614 46.064C365.958 45.2 364.674 44.036 363.762 42.572C362.874 41.084 362.382 39.428 362.286 37.604C362.238 36.308 362.214 35.252 362.214 34.436C362.214 33.62 362.238 32.54 362.286 31.196C362.382 29.372 362.874 27.728 363.762 26.264C364.674 24.776 365.958 23.6 367.614 22.736C369.27 21.872 371.238 21.44 373.518 21.44ZM378.09 31.376C377.97 30.104 377.526 29.096 376.758 28.352C376.014 27.584 374.934 27.2 373.518 27.2C372.102 27.2 371.01 27.584 370.242 28.352C369.498 29.096 369.066 30.104 368.946 31.376C368.874 32.168 368.838 33.164 368.838 34.364C368.838 35.54 368.874 36.56 368.946 37.424C369.066 38.696 369.498 39.716 370.242 40.484C371.01 41.228 372.102 41.6 373.518 41.6C374.934 41.6 376.014 41.228 376.758 40.484C377.526 39.716 377.97 38.696 378.09 37.424C378.162 36.56 378.198 35.54 378.198 34.364C378.198 33.164 378.162 32.168 378.09 31.376ZM407.458 21.8C407.722 21.8 407.95 21.896 408.142 22.088C408.334 22.28 408.43 22.508 408.43 22.772V26.588C408.43 26.852 408.334 27.08 408.142 27.272C407.95 27.464 407.722 27.56 407.458 27.56H401.122V46.028C401.122 46.292 401.026 46.52 400.834 46.712C400.642 46.904 400.414 47 400.15 47H395.434C395.17 47 394.942 46.904 394.75 46.712C394.558 46.52 394.462 46.292 394.462 46.028V27.56H388.126C387.862 27.56 387.634 27.464 387.442 27.272C387.25 27.08 387.154 26.852 387.154 26.588V22.772C387.154 22.508 387.25 22.28 387.442 22.088C387.634 21.896 387.862 21.8 388.126 21.8H407.458ZM418.325 37.208H428.621C428.885 37.208 429.113 37.112 429.305 36.92C429.497 36.728 429.593 36.5 429.593 36.236V32.42C429.593 32.156 429.497 31.928 429.305 31.736C429.113 31.544 428.885 31.448 428.621 31.448H418.325V27.56H429.413C429.677 27.56 429.905 27.464 430.097 27.272C430.289 27.08 430.385 26.852 430.385 26.588V22.772C430.385 22.508 430.289 22.28 430.097 22.088C429.905 21.896 429.677 21.8 429.413 21.8H412.637C412.373 21.8 412.145 21.896 411.953 22.088C411.761 22.28 411.665 22.508 411.665 22.772V46.028C411.665 46.292 411.761 46.52 411.953 46.712C412.145 46.904 412.373 47 412.637 47H429.701C429.965 47 430.193 46.904 430.385 46.712C430.577 46.52 430.673 46.292 430.673 46.028V42.212C430.673 41.948 430.577 41.72 430.385 41.528C430.193 41.336 429.965 41.24 429.701 41.24H418.325V37.208Z" fill="white"/>
<path d="M21.7273 13L10 29.4412M21.7273 13H53M21.7273 13V41.4559M10 29.4412H42.5758M10 29.4412V56M42.5758 29.4412L53 13M42.5758 29.4412V56M53 13V41.4559M10 56H42.5758M10 56L21.7273 41.4559M42.5758 56L53 41.4559M53 41.4559H21.7273" stroke="white"/>
</g>
<defs>
<clipPath id="clip0">
<rect width="450" height="67" fill="white"/>
</clipPath>
</defs>
</svg>
